<?xml version="1.0" encoding="UTF-8"?>
<svg data-bbox="-0.001 0 707.8 380.022" viewBox="0 0 713.166 380.022" height="380.022" width="713.166" xmlns="http://www.w3.org/2000/svg" data-type="color">
    <g>
        <path d="M424.833 14.225a6.24 6.24 0 0 0-5.566-3.422h-5.084c-2.561 0-4.226 2.698-3.078 4.988l8.499 16.95 7.761 13.202a83.773 83.773 0 0 0 24.198 26.188l50.53 35.351a63.091 63.091 0 0 1 17.19 18.029l16.492 26.502 2.415-21.351-13.292-23.705a49.297 49.297 0 0 0-15.617-16.881L454.56 53.525l-5.301-4.833a95.556 95.556 0 0 1-20.884-27.47l-3.541-6.997" fill="#8f3b1b" data-color="1"/>
        <path d="m454.793 212.306-18.264-16.652-10.968-26.865.4-10.298-5.328 18.406 2.872 11.256a52.619 52.619 0 0 0 22.291 31.101l47.815 31.11a28.959 28.959 0 0 0 15.793 4.685h1.968c4.968 0 6.717-6.587 2.402-9.05l-58.981-33.693" fill="#8f3b1b" data-color="1"/>
        <path d="m534.692 46.907.208.394a7.484 7.484 0 0 1 .545 5.713l-2.071 6.728c-.617 2.007-3.24 2.489-4.53.83l-27.335-35.145c-2.912-3.746-.079-9.183 4.66-8.939l8.503.435a7.425 7.425 0 0 1 6.175 3.93l13.845 26.054" fill="#8f3b1b" data-color="1"/>
        <path d="M519.783 28.732c1.442 2.718-.732 5.945-3.793 5.63l-40.025-4.13a3.757 3.757 0 0 0-.786 0l-44.856 4.594a3.845 3.845 0 0 1-3.863-2.169l-4.724-9.89c-1.362-2.852 1.108-6.039 4.21-5.432l48.095 9.405a3.86 3.86 0 0 0 1.163.048l37.515-4.161a5.345 5.345 0 0 1 5.312 2.806l1.752 3.299" fill="#85be42" data-color="2"/>
        <path d="M532.045 55.19a3.846 3.846 0 0 1-3.688 5.817l-33.292-3.454a3.862 3.862 0 0 0-.711-.009l-42.477 3.492a3.841 3.841 0 0 1-2.916-.999l-3.746-3.434c-2.71-2.485-.722-6.992 2.94-6.666l45.315 4.027a3.813 3.813 0 0 0 1.196-.08l27.892-6.365a6.052 6.052 0 0 1 6.525 2.77l2.962 4.902" fill="#85be42" data-color="2"/>
        <path d="m480.471 77.683 22.94 3.829a3.847 3.847 0 0 0 1.946-.179l9.41-3.415c3.047-1.105 6.01 1.82 4.946 4.88l-.183.528a3.85 3.85 0 0 1-3.935 2.571l-10.373-.816a3.837 3.837 0 0 0-1.585.208l-12.184 4.315a3.847 3.847 0 0 1-4.024-.926l-8.296-8.417c-1.038-1.054-.12-2.822 1.339-2.578" fill="#85be42" data-color="2"/>
        <path d="M431.126 194.59a3.846 3.846 0 0 0 4.387 2.582l23.82-4.606c.308-.06.623-.081.937-.065l17.67.952a3.846 3.846 0 0 0 3.638-2.1l.624-1.229c1.49-2.938-1.162-6.268-4.36-5.473l-17.303 4.302a3.837 3.837 0 0 1-1.495.072l-27.489-4.095a2.355 2.355 0 0 0-2.585 3.06l2.156 6.6" fill="#85be42" data-color="2"/>
        <path d="m512.124 108.182-5.971 2.9a3.837 3.837 0 0 1-1.734.386l-24.422-.339a3.845 3.845 0 0 0-3.798 2.965l-1.313 5.58c-.696 2.957 2.15 5.514 5.017 4.51l25.502-8.94a3.846 3.846 0 0 1 2-.146l6.229 1.199c3.309.636 5.779-2.988 3.976-5.835l-.555-.878a3.847 3.847 0 0 0-4.931-1.402" fill="#85be42" data-color="2"/>
        <path d="M532.466 135.914c.947 2.565-1.01 5.272-3.742 5.177l-30.456-1.058a3.802 3.802 0 0 0-.875.07l-49.641 9.751c-3.347.658-5.83-3.042-3.954-5.89l6.539-9.93a3.847 3.847 0 0 1 3.633-1.707l43.285 4.766a3.84 3.84 0 0 0 1.135-.044l29.003-5.48a3.904 3.904 0 0 1 4.386 2.484l.688 1.861" fill="#85be42" data-color="2"/>
        <path d="M491.601 237.673c3.232 2.253 1.39 7.33-2.535 6.986l-26.39-1.89-.937.032-28.805 4.056c-3.224.454-5.519-3.053-3.813-5.825l3.38-5.494a3.846 3.846 0 0 1 4.256-1.704l24.537 6.47a3.859 3.859 0 0 0 1.891.017l23.743-4.025a5.375 5.375 0 0 1 3.979.892l.695.485" fill="#85be42" data-color="2"/>
        <path d="m519.934 154.43-7.39 14.783a3.847 3.847 0 0 1-3.847 2.104l-40.236-4.274a3.825 3.825 0 0 0-1.013.028l-39.182 6.268c-3.2.513-5.562-2.925-3.933-5.728l2.317-3.995a3.845 3.845 0 0 1 3.574-1.908l37.25 2.389c.319.021.637.001.951-.058l51.509-9.608" fill="#85be42" data-color="2"/>
        <path d="m527.471 63.656 8.304-12.67-.455 18.987a9.519 9.519 0 0 1-1.984 5.592l-8.617 11.147a104.556 104.556 0 0 1-22.169 21.294l-51.198 36.385a52.15 52.15 0 0 0-8.73 7.82s-17.644 17.907-21.99 24.686c.688-3.506.87-5.404.87-5.404a64.216 64.216 0 0 1 12.856-29.429l4.26-5.437a54.172 54.172 0 0 1 11.82-11.139l50.212-34.742a78.623 78.623 0 0 0 11.103-9.308l7.321-7.389a66.2 66.2 0 0 0 8.398-10.393" fill="#f47d20" data-color="3"/>
        <path d="m493.891 172.996-33.702 23.32a101.909 101.909 0 0 0-27.45 28.246l-19.005 29.219c-.848 1.302.088 3.025 1.641 3.025h8.878a6.227 6.227 0 0 0 5.345-3.034l4.59-7.69a114.55 114.55 0 0 1 32.009-34.666l34.74-24.69a196.1 196.1 0 0 0 26.532-22.664l5.691-5.814a15.374 15.374 0 0 0 4.375-10.172l.655-17.414-.049.083c-3.22 7.453-6.598 10.858-9.915 14.497l-1.417 1.421a38.013 38.013 0 0 1-3.38 3.01l-29.537 23.323" fill="#f47d20" data-color="3"/>
        <path d="M0 .483v260.36h56.026V110.415l73.365 150.426h66.51V.482h-56.027v150.083L66.057.483Z" fill="#f47d20" data-color="3"/>
        <path d="M278.71 147.4v67.852h35.974c15.196 0 26.415-2.908 33.657-8.728 7.24-5.815 10.864-14.717 10.864-26.71 0-21.607-15.435-32.413-46.302-32.413H278.71zm0-43.807h32.056c14.96 0 25.792-2.315 32.5-6.946 6.707-4.63 10.062-12.288 10.062-22.973 0-9.972-3.65-17.123-10.952-21.458-7.3-4.333-18.85-6.502-34.637-6.502H278.71v57.88zM223.504.482h81.029c36.922 0 63.723 5.252 80.406 15.76 16.679 10.506 25.021 27.22 25.021 50.131 0 15.555-3.651 28.315-10.952 38.288-7.301 9.973-17.008 15.97-29.116 17.987v1.781c16.498 3.682 28.403 10.568 35.705 20.658 7.3 10.091 10.95 23.508 10.95 40.248 0 23.746-8.577 42.267-25.73 55.56-17.16 13.298-40.457 19.947-69.9 19.947h-97.413V.482" fill="#f47d20" data-color="3"/>
        <path d="M707.799 186.91c0 22.91-8.459 40.957-25.376 54.147-16.92 13.19-40.457 19.785-70.612 19.785-27.78 0-52.357-5.091-73.727-15.274v-49.981c17.57 7.638 32.44 13.018 44.61 16.14 12.169 3.125 23.3 4.685 33.392 4.685 12.108 0 21.397-2.255 27.87-6.768 6.468-4.512 9.704-11.218 9.704-20.13 0-4.975-1.423-9.4-4.272-13.276-2.85-3.875-7.037-7.607-12.557-11.195-5.52-3.585-16.768-9.312-33.746-17.18-15.911-7.29-27.842-14.287-35.795-21-7.955-6.707-14.307-14.519-19.055-23.429-4.75-8.907-7.122-19.32-7.122-31.237 0-22.445 7.804-40.09 23.417-52.933C580.14 6.422 601.72 0 629.264 0c13.534 0 21.453 1.842 33.654 5.288 13.589 3.837 20.537 5.402 33.635 10.437l.704 51.045c-18.1-11.993-30.523-16.182-40.977-19.445-9.441-2.946-20.013-2.547-28.797-2.547-10.449 0-18.463 2.371-24.041 7.115-5.582 4.745-8.372 10.931-8.372 18.569 0 4.745 1.128 8.881 3.385 12.408 2.254 3.53 5.846 6.942 10.775 10.24 4.925 3.297 16.588 9.228 34.993 17.788 24.335 11.339 41.017 22.707 50.042 34.101 9.02 11.399 13.534 25.369 13.534 41.913" fill="#f47d20" data-color="3"/>
        <path d="M30.09 325.142h-5.11L3.927 291.219h-.213c.281 3.98.424 7.63.424 10.948v22.975H0v-40.42h5.06l21 33.785h.213c-.038-.496-.117-2.096-.238-4.796-.125-2.699-.168-4.632-.134-5.793v-23.196h4.19v40.42" fill="#85be42" data-color="2"/>
        <path d="m58.706 308.056-4.48-12.525c-.58-1.585-1.177-3.529-1.79-5.834-.388 1.77-.94 3.716-1.66 5.835l-4.533 12.524h12.462zm6.193 17.087-4.796-12.858H44.66l-4.74 12.855h-4.533l15.23-40.588h3.77l15.15 40.588h-4.638" fill="#85be42" data-color="2"/>
        <path d="M86.689 325.142h-4.48v-36.245H70.011v-4.176h28.88v4.176h-12.2v36.245" fill="#85be42" data-color="2"/>
        <path d="M104.685 325.142h4.479v-40.42h-4.479v40.42z" fill="#85be42" data-color="2"/>
        <path d="M122.471 304.876c0 5.475 1.11 9.626 3.333 12.456 2.222 2.829 5.45 4.244 9.684 4.244 4.267 0 7.49-1.41 9.668-4.23 2.18-2.82 3.27-6.975 3.27-12.47 0-5.437-1.087-9.562-3.256-12.373-2.17-2.81-5.38-4.216-9.63-4.216-4.269 0-7.514 1.415-9.736 4.245-2.223 2.829-3.333 6.945-3.333 12.344zm30.697 0c0 6.47-1.56 11.557-4.678 15.262-3.117 3.704-7.452 5.556-13.002 5.556-5.675 0-10.053-1.82-13.137-5.46-3.082-3.64-4.623-8.777-4.623-15.412 0-6.58 1.546-11.683 4.637-15.304 3.091-3.621 7.484-5.434 13.175-5.434 5.533 0 9.854 1.845 12.963 5.53 3.11 3.687 4.665 8.775 4.665 15.262" fill="#85be42" data-color="2"/>
        <path d="M191.849 325.142h-5.112l-21.053-33.922h-.213c.283 3.98.425 7.63.425 10.947v22.975h-4.137v-40.42h5.058l21 33.785h.212c-.036-.496-.116-2.096-.237-4.796-.125-2.699-.168-4.632-.133-5.793v-23.196h4.189v40.42" fill="#85be42" data-color="2"/>
        <path d="m220.464 308.056-4.48-12.525c-.579-1.585-1.177-3.529-1.792-5.834-.385 1.77-.938 3.716-1.66 5.835L208 308.056h12.464zm6.191 17.087-4.793-12.858h-15.44l-4.743 12.856h-4.534l15.23-40.588h3.769l15.15 40.588h-4.638" fill="#85be42" data-color="2"/>
        <path d="M236.59 325.142v-40.42h4.479v36.163h16.995v4.258h-21.475" fill="#85be42" data-color="2"/>
        <path d="M281.096 306.01v15.123h8.037c3.109 0 5.449-.631 7.021-1.894 1.573-1.262 2.359-3.238 2.359-5.93 0-2.507-.804-4.35-2.411-5.53-1.608-1.18-4.054-1.768-7.338-1.768h-7.668zm0-3.982h7.378c3.162 0 5.435-.52 6.825-1.562 1.388-1.04 2.081-2.797 2.081-5.267 0-2.266-.774-3.902-2.32-4.906-1.545-1.005-4.005-1.507-7.377-1.507h-6.588v13.242zm-4.48-17.307H287.5c5.111 0 8.809.802 11.092 2.406 2.284 1.604 3.425 4.137 3.425 7.602 0 2.397-.636 4.374-1.91 5.93-1.273 1.56-3.13 2.568-5.572 3.03v.274c5.85 1.051 8.774 4.275 8.774 9.678 0 3.612-1.164 6.432-3.49 8.46-2.329 2.027-5.583 3.041-9.763 3.041h-13.437v-40.42" fill="#85be42" data-color="2"/>
        <path d="M311.582 325.142h4.48v-40.42h-4.48v40.42z" fill="#85be42" data-color="2"/>
        <path d="M329.368 304.876c0 5.475 1.11 9.626 3.332 12.456 2.223 2.829 5.45 4.244 9.684 4.244 4.269 0 7.491-1.41 9.67-4.23 2.178-2.82 3.266-6.975 3.266-12.47 0-5.437-1.084-9.562-3.252-12.373-2.17-2.81-5.381-4.216-9.631-4.216-4.27 0-7.514 1.415-9.737 4.245-2.222 2.829-3.332 6.945-3.332 12.344zm30.696 0c0 6.47-1.56 11.557-4.678 15.262-3.117 3.704-7.452 5.556-13.002 5.556-5.675 0-10.053-1.82-13.135-5.46-3.084-3.64-4.625-8.777-4.625-15.412 0-6.58 1.546-11.683 4.638-15.304 3.09-3.621 7.483-5.434 13.175-5.434 5.533 0 9.853 1.845 12.965 5.53 3.107 3.687 4.662 8.775 4.662 15.262" fill="#85be42" data-color="2"/>
        <path d="M368.653 325.142h4.481v-40.42h-4.481v40.42z" fill="#85be42" data-color="2"/>
        <path d="M413.789 325.142h-5.112l-21.052-33.922h-.212c.282 3.98.422 7.63.422 10.947v22.975h-4.137v-40.42h5.06l21.001 33.785h.21c-.036-.496-.115-2.096-.237-4.796-.123-2.699-.167-4.632-.132-5.793v-23.196h4.189v40.42" fill="#85be42" data-color="2"/>
        <path d="M428.863 325.142h-4.48v-40.42h21.475v4.175H428.86v14.791h15.968v4.174H428.86v17.28" fill="#85be42" data-color="2"/>
        <path d="M454.974 304.876c0 5.475 1.113 9.626 3.334 12.456 2.222 2.829 5.45 4.244 9.682 4.244 4.27 0 7.493-1.41 9.67-4.23 2.179-2.82 3.268-6.975 3.268-12.47 0-5.437-1.084-9.562-3.254-12.373-2.169-2.81-5.381-4.216-9.63-4.216-4.269 0-7.514 1.415-9.738 4.245-2.22 2.829-3.332 6.945-3.332 12.344zm30.696 0c0 6.47-1.557 11.557-4.675 15.262-3.12 3.704-7.454 5.556-13.005 5.556-5.672 0-10.052-1.82-13.134-5.46-3.083-3.64-4.625-8.777-4.625-15.412 0-6.58 1.547-11.683 4.638-15.304 3.091-3.621 7.482-5.434 13.175-5.434 5.534 0 9.854 1.845 12.962 5.53 3.11 3.687 4.664 8.775 4.664 15.262" fill="#85be42" data-color="2"/>
        <path d="M498.74 304.297h6.139c3.162 0 5.481-.66 6.956-1.979 1.475-1.316 2.213-3.292 2.213-5.93 0-2.671-.75-4.598-2.253-5.777-1.501-1.18-3.912-1.77-7.232-1.77h-5.823v15.456zm0 4.035v16.81h-4.48v-40.42h10.566c4.725 0 8.217.95 10.475 2.849 2.255 1.898 3.385 4.755 3.385 8.57 0 5.346-2.582 8.958-7.747 10.837l10.462 18.165h-5.297l-9.328-16.81h-8.037" fill="#85be42" data-color="2"/>
        <path d="m544.666 325.142-13.068-35.831h-.212c.247 2.839.37 6.211.37 10.119v25.712h-4.137v-40.42h6.745l12.2 33.343h.211l12.305-33.343h6.693v40.42h-4.48v-26.044c0-2.987.123-6.23.368-9.731h-.21l-13.175 35.775h-3.61" fill="#85be42" data-color="2"/>
        <path d="m594.36 308.056-4.479-12.525c-.58-1.585-1.177-3.529-1.792-5.834-.386 1.77-.938 3.716-1.658 5.835l-4.533 12.524h12.462zm6.193 17.087-4.795-12.857h-15.44l-4.744 12.856h-4.532l15.23-40.588h3.767l15.151 40.588h-4.637" fill="#85be42" data-color="2"/>
        <path d="M620.344 325.142h-4.479v-36.245h-12.2v-4.176h28.879v4.176h-12.2v36.245" fill="#85be42" data-color="2"/>
        <path d="M640.339 325.142h4.48v-40.42h-4.48v40.42z" fill="#85be42" data-color="2"/>
        <path d="M669.88 288.343c-4.233 0-7.575 1.48-10.025 4.438-2.452 2.959-3.676 7.009-3.676 12.151 0 5.29 1.18 9.375 3.543 12.263 2.362 2.882 5.732 4.325 10.106 4.325 2.687 0 5.752-.507 9.195-1.52v4.118c-2.671 1.051-5.963 1.575-9.88 1.575-5.675 0-10.053-1.805-13.136-5.417-3.083-3.613-4.623-8.747-4.623-15.4 0-4.164.741-7.814 2.225-10.95 1.485-3.131 3.628-5.545 6.429-7.241 2.802-1.695 6.1-2.544 9.895-2.544 4.039 0 7.571.775 10.592 2.322l-1.897 4.036c-2.915-1.437-5.833-2.156-8.748-2.156" fill="#85be42" data-color="2"/>
        <path d="M707.799 314.387c0 3.558-1.229 6.331-3.688 8.322-2.46 1.99-5.797 2.985-10.013 2.985-4.568 0-8.08-.617-10.54-1.852v-4.534a26.7 26.7 0 0 0 5.165 1.659 25.896 25.896 0 0 0 5.534.609c2.985 0 5.233-.594 6.745-1.784 1.51-1.189 2.266-2.844 2.266-4.963 0-1.4-.269-2.548-.805-3.442-.535-.894-1.43-1.719-2.688-2.475-1.255-.755-3.165-1.613-5.73-2.57-3.583-1.346-6.145-2.94-7.68-4.784-1.537-1.842-2.306-4.247-2.306-7.215 0-3.115 1.116-5.594 3.346-7.439 2.232-1.842 5.183-2.763 8.854-2.763 3.829 0 7.351.737 10.565 2.212l-1.397 4.091c-3.178-1.4-6.27-2.1-9.273-2.1-2.372 0-4.225.534-5.561 1.603-1.335 1.069-2 2.552-2 4.451 0 1.4.244 2.549.736 3.441.493.894 1.321 1.715 2.49 2.462 1.168.747 2.954 1.571 5.363 2.474 4.04 1.512 6.82 3.133 8.34 4.866 1.518 1.732 2.277 3.982 2.277 6.746" fill="#85be42" data-color="2"/>
        <path d="M-.001 379.468h4.74v-40.42h-4.74v40.42z" fill="#85be42" data-color="2"/>
        <path d="M47.752 379.468h-5.408L20.07 345.546h-.222c.296 3.98.446 7.63.446 10.95v22.971h-4.376v-40.42h5.351l22.218 33.787h.223c-.037-.497-.121-2.097-.251-4.796-.13-2.7-.176-4.632-.14-5.792V339.05h4.433v40.418" fill="#85be42" data-color="2"/>
        <path d="M63.698 379.468h-4.739v-40.42h22.719v4.175h-17.98v14.791H80.59v4.174H63.7v17.28" fill="#85be42" data-color="2"/>
        <path d="M93.163 358.622h6.495c3.346 0 5.8-.659 7.36-1.976 1.56-1.318 2.34-3.294 2.34-5.93 0-2.673-.793-4.6-2.382-5.779-1.59-1.18-4.14-1.77-7.652-1.77h-6.161v15.455zm0 4.036v16.81h-4.738v-40.42h11.178c4.998 0 8.691.95 11.08 2.848 2.387 1.899 3.582 4.755 3.582 8.57 0 5.346-2.731 8.959-8.196 10.839l11.068 18.163h-5.602l-9.868-16.81h-8.503" fill="#85be42" data-color="2"/>
        <path d="m142.783 362.382-4.739-12.524c-.614-1.586-1.245-3.53-1.896-5.834-.408 1.77-.994 3.715-1.755 5.834l-4.796 12.524h13.186zm6.551 17.086-5.075-12.855h-16.335l-5.018 12.855h-4.793l16.112-40.587h3.986l16.03 40.589h-4.907" fill="#85be42" data-color="2"/>
        <path d="M182.84 368.713c0 3.558-1.3 6.333-3.902 8.323-2.603 1.99-6.133 2.986-10.593 2.986-4.832 0-8.55-.617-11.15-1.854v-4.534a29.421 29.421 0 0 0 5.463 1.658 28.953 28.953 0 0 0 5.854.609c3.16 0 5.538-.594 7.137-1.784 1.598-1.188 2.397-2.843 2.397-4.963 0-1.4-.283-2.547-.85-3.442-.568-.894-1.516-1.719-2.844-2.475-1.328-.755-3.35-1.611-6.063-2.57-3.791-1.346-6.5-2.939-8.125-4.782-1.626-1.844-2.44-4.25-2.44-7.217 0-3.115 1.18-5.594 3.54-7.437 2.36-1.844 5.482-2.765 9.366-2.765 4.053 0 7.778.737 11.179 2.212l-1.476 4.091c-3.364-1.4-6.636-2.1-9.813-2.1-2.508 0-4.47.534-5.882 1.603-1.413 1.069-2.119 2.554-2.119 4.451 0 1.4.259 2.55.781 3.441.519.896 1.398 1.716 2.634 2.463 1.235.746 3.125 1.571 5.673 2.475 4.275 1.51 7.215 3.133 8.822 4.863 1.608 1.733 2.413 3.983 2.413 6.747" fill="#85be42" data-color="2"/>
        <path d="M203.72 379.468h-4.737v-36.245h-12.909v-4.175h30.552v4.175H203.72v36.245" fill="#85be42" data-color="2"/>
        <path d="M227.499 358.622h6.495c3.345 0 5.8-.659 7.36-1.976 1.561-1.318 2.341-3.294 2.341-5.93 0-2.673-.794-4.6-2.384-5.779-1.588-1.18-4.14-1.77-7.65-1.77H227.5v15.455zm0 4.036v16.81h-4.74v-40.42h11.18c4.999 0 8.691.95 11.08 2.848 2.387 1.899 3.581 4.755 3.581 8.57 0 5.346-2.731 8.959-8.195 10.839l11.069 18.163h-5.604l-9.868-16.81H227.5" fill="#85be42" data-color="2"/>
        <path d="M288.828 339.048v26.155c0 4.608-1.405 8.229-4.21 10.865-2.807 2.635-6.663 3.954-11.569 3.954-4.905 0-8.701-1.328-11.387-3.982-2.687-2.654-4.028-6.303-4.028-10.95v-26.042h4.737v26.375c0 3.374.93 5.963 2.79 7.769 1.857 1.807 4.59 2.71 8.194 2.71 3.438 0 6.088-.908 7.945-2.723 1.858-1.816 2.788-4.42 2.788-7.81v-26.32h4.74" fill="#85be42" data-color="2"/>
        <path d="M317.066 342.67c-4.478 0-8.015 1.48-10.607 4.437-2.593 2.959-3.889 7.009-3.889 12.151 0 5.29 1.25 9.378 3.75 12.261 2.499 2.885 6.063 4.327 10.69 4.327 2.843 0 6.086-.505 9.729-1.52v4.12c-2.825 1.051-6.31 1.576-10.454 1.576-6.002 0-10.635-1.807-13.895-5.42-3.262-3.611-4.892-8.745-4.892-15.4 0-4.164.784-7.814 2.355-10.947 1.569-3.133 3.837-5.548 6.8-7.244 2.965-1.695 6.455-2.544 10.47-2.544 4.274 0 8.009.774 11.205 2.323l-2.006 4.037c-3.086-1.437-6.172-2.157-9.256-2.157" fill="#85be42" data-color="2"/>
        <path d="M348.176 379.468h-4.74v-36.245H330.53v-4.175h30.551v4.175h-12.905v36.245" fill="#85be42" data-color="2"/>
        <path d="M397.99 339.048v26.155c0 4.608-1.402 8.229-4.209 10.865-2.806 2.635-6.662 3.954-11.568 3.954s-8.703-1.328-11.388-3.982c-2.685-2.654-4.027-6.303-4.027-10.95v-26.042h4.739v26.375c0 3.374.928 5.963 2.787 7.769 1.859 1.807 4.591 2.71 8.196 2.71 3.438 0 6.085-.908 7.944-2.723 1.859-1.816 2.788-4.42 2.788-7.81v-26.32h4.737" fill="#85be42" data-color="2"/>
        <path d="M413.519 358.622h6.494c3.346 0 5.798-.659 7.358-1.976 1.563-1.318 2.342-3.294 2.342-5.93 0-2.673-.794-4.6-2.382-5.779-1.59-1.18-4.14-1.77-7.653-1.77h-6.159v15.455zm0 4.036v16.81h-4.74v-40.42h11.177c5 0 8.693.95 11.082 2.848 2.387 1.899 3.582 4.755 3.582 8.57 0 5.346-2.731 8.959-8.196 10.839l11.067 18.163h-5.602l-9.869-16.81h-8.501" fill="#85be42" data-color="2"/>
        <path d="M466.789 379.468H444.07v-40.42h22.719v4.175H448.81v13.022h16.893v4.147H448.81v14.874h17.979v4.202" fill="#85be42" data-color="2"/>
        <path d="M513.649 368.713c0 3.558-1.3 6.333-3.9 8.323-2.605 1.99-6.135 2.986-10.596 2.986-4.832 0-8.549-.617-11.15-1.854v-4.534a29.462 29.462 0 0 0 5.463 1.658 28.953 28.953 0 0 0 5.854.609c3.159 0 5.538-.594 7.138-1.784 1.597-1.188 2.396-2.843 2.396-4.963 0-1.4-.285-2.547-.85-3.442-.566-.894-1.514-1.719-2.844-2.475-1.329-.755-3.35-1.611-6.062-2.57-3.792-1.346-6.5-2.939-8.127-4.782-1.625-1.844-2.438-4.25-2.438-7.217 0-3.115 1.18-5.594 3.538-7.437 2.362-1.844 5.483-2.765 9.37-2.765 4.05 0 7.774.737 11.177 2.212l-1.479 4.091c-3.363-1.4-6.634-2.1-9.813-2.1-2.508 0-4.468.534-5.88 1.603s-2.12 2.554-2.12 4.451c0 1.4.262 2.55.78 3.441.522.896 1.4 1.716 2.637 2.463 1.235.746 3.125 1.571 5.672 2.475 4.275 1.51 7.215 3.133 8.823 4.863 1.607 1.733 2.411 3.983 2.411 6.747" fill="#85be42" data-color="2"/>
        <path d="M557.554 379.468h-4.681l-8.224-27.066a84.501 84.501 0 0 1-1.31-4.535c-.484-1.825-.735-2.92-.752-3.29-.41 2.434-1.06 5.096-1.953 7.991l-7.971 26.9h-4.684l-10.844-40.42h5.018l6.438 24.965c.893 3.503 1.543 6.674 1.95 9.51a68.252 68.252 0 0 1 2.232-9.896l7.304-24.579h5.017l7.666 24.8c.893 2.856 1.647 6.081 2.259 9.675.353-2.616 1.021-5.805 2.008-9.565l6.41-24.91h5.018l-10.9 40.42" fill="#85be42" data-color="2"/>
        <path d="M597.558 379.468h-22.72v-40.42h22.72v4.175h-17.98v13.022h16.894v4.147h-16.894v14.874h17.98v4.202" fill="#85be42" data-color="2"/>
        <path d="M634.103 359.037c0-5.271-1.334-9.242-3.999-11.916-2.669-2.673-6.631-4.008-11.89-4.008h-6.885v32.291h5.77c5.649 0 9.896-1.377 12.739-4.133 2.843-2.755 4.265-6.833 4.265-12.234zm5.017-.166c0 6.674-1.825 11.775-5.477 15.302-3.653 3.53-8.905 5.295-15.764 5.295h-11.291v-40.42h12.491c6.335 0 11.261 1.741 14.774 5.225 3.511 3.484 5.267 8.35 5.267 14.598" fill="#85be42" data-color="2"/>
        <path d="M666.928 379.468h-22.72v-40.42h22.72v4.175h-17.979v13.022h16.894v4.147h-16.894v14.874h17.98v4.202" fill="#85be42" data-color="2"/>
        <path d="M707.799 379.468h-5.41l-22.273-33.922h-.222c.297 3.98.446 7.63.446 10.95v22.971h-4.377v-40.42h5.352l22.219 33.787h.221c-.037-.497-.12-2.097-.25-4.796-.13-2.7-.176-4.632-.138-5.792V339.05h4.432v40.418" fill="#85be42" data-color="2"/>
    </g>
</svg>
